<svg xmlns="http://www.w3.org/2000/svg" fill="white" viewBox="0 0 122.42 67.64"><path d="M554.55,233.73a31.66,31.66,0,0,1,11.92-12.11,32.79,32.79,0,0,1,16.77-4.37,34,34,0,0,1,18.9,5.22,29.93,29.93,0,0,1,11.78,14.82H603.57a20.79,20.79,0,0,0-7.93-9.21,22.93,22.93,0,0,0-12.4-3.23,24.07,24.07,0,0,0-12.45,3.23,22.61,22.61,0,0,0-8.64,9.16,32.2,32.2,0,0,0,0,27.74,22.57,22.57,0,0,0,8.64,9.17,24.17,24.17,0,0,0,12.45,3.23,23.27,23.27,0,0,0,12.4-3.18,20.52,20.52,0,0,0,7.93-9.17h10.35a29.76,29.76,0,0,1-11.78,14.68,34.25,34.25,0,0,1-18.9,5.18,33.05,33.05,0,0,1-16.77-4.33,31.4,31.4,0,0,1-11.92-12,36.87,36.87,0,0,1,0-34.82Z" transform="translate(-550.18 -217.25)"/><rect x="646.09" y="260.32" width="7" height="39" transform="translate(379.23 -587.02) rotate(90)"/><circle cx="99.42" cy="25.57" r="19.5" style="fill:none;stroke:#FFF;stroke-miterlimit:10;stroke-width:7px"/></svg>
